<?xml version="1.0" encoding="utf-8"?>
<!-- Generator: Adobe Illustrator 19.0.0, SVG Export Plug-In . SVG Version: 6.00 Build 0)  -->
<svg version="1.1" id="Layer_1" xmlns="http://www.w3.org/2000/svg" xmlns:xlink="http://www.w3.org/1999/xlink" x="0px" y="0px"
	 viewBox="0 0 329.1 105" enable-background="new 0 0 329.1 105" xml:space="preserve">
<g id="XMLID_29_">
	<path id="XMLID_32_" fill="#DBEAF5" d="M230,70c0,13.8-4,27-10.8,37.5h110c-2-24.7-22.6-44.4-47.8-44.4c-0.9,0-1.8-0.1-2.7-0.1
		c-6.9-20.4-26.2-35.2-49-35.2c-4.3,0-8.5,0.5-12.6,1.6C225.2,40.9,230,54.9,230,70z"/>
	<path id="XMLID_33_" fill="#C5D6E2" d="M230,70c0,13.8-4,27-10.8,37.5h19c3.4-7.7,5.3-16.7,5.3-25.9c0-22.1-10.8-41.7-27.5-53.8
		C224.8,39.6,230,54.2,230,70z"/>
	<path id="XMLID_34_" fill="#FFFFFF" d="M219.2,107C226,97,230,83.6,230,69.8c0-38.9-31.5-70.3-70.4-70.3c-28.5,0-53.1,17-64.2,41.4
		c-2.1-0.3-4.2-0.4-6.4-0.4c-22.6,0-41.4,16.3-45.3,37.7c-2.1-0.4-4.2-0.8-6.4-0.8C19.3,77.4,4.3,91,1,107H219.2z"/>
</g>
</svg>
