<?xml version="1.0" encoding="utf-8"?>
<!-- Generator: Adobe Illustrator 19.0.0, SVG Export Plug-In . SVG Version: 6.00 Build 0)  -->
<svg version="1.1" id="Layer_1" xmlns="http://www.w3.org/2000/svg" xmlns:xlink="http://www.w3.org/1999/xlink" x="0px" y="0px"
	 viewBox="0 0 44 44" style="enable-background:new 0 0 44 44;" xml:space="preserve">
<style type="text/css">
	.st0{fill:#207245;}
	.st1{fill:#FFFFFF;}
</style>
<g id="excel">
	<path id="XMLID_8_" class="st0" d="M23,0.5h3c0,1.3,0,2.7,0,4c5,0,10,0,15,0c0.8,0,1.8,0,2.5,0.5C44,5.7,44,6.7,44,7.5
		c0,8.7,0,17.3,0,26c0,1.5,0.1,2.9-0.2,4.4c-0.2,1-1.4,1.1-2.3,1.1c-5.2,0-10.4,0-15.5,0c0,1.5,0,3,0,4.5h-3.1
		c-7.6-1.4-15.2-2.7-22.9-4c0-11.7,0-23.3,0-35C7.7,3.2,15.3,1.9,23,0.5z"/>
	<path id="XMLID_7_" class="st1" d="M26,6c5.5,0,11,0,16.5,0c0,10.5,0,21,0,31.5c-5.5,0-11,0-16.5,0c0-1,0-2,0-3c1.3,0,2.7,0,4,0
		c0-1.2,0-2.3,0-3.5c-1.3,0-2.7,0-4,0c0-0.7,0-1.3,0-2c1.3,0,2.7,0,4,0c0-1.2,0-2.3,0-3.5c-1.3,0-2.7,0-4,0c0-0.7,0-1.3,0-2
		c1.3,0,2.7,0,4,0c0-1.2,0-2.3,0-3.5c-1.3,0-2.7,0-4,0c0-0.7,0-1.3,0-2c1.3,0,2.7,0,4,0c0-1.2,0-2.3,0-3.5c-1.3,0-2.7,0-4,0
		c0-0.7,0-1.3,0-2c1.3,0,2.7,0,4,0c0-1.2,0-2.3,0-3.5c-1.3,0-2.7,0-4,0C26,8,26,7,26,6z"/>
	<path id="XMLID_6_" class="st0" d="M32,9c2.3,0,4.7,0,7,0c0,1.2,0,2.3,0,3.5c-2.3,0-4.7,0-7,0C32,11.3,32,10.2,32,9z"/>
	<path id="XMLID_5_" class="st1" d="M14.8,13.7c1.1-0.1,2.3-0.1,3.4-0.2c-1.3,2.7-2.7,5.5-4,8.2c1.4,2.8,2.8,5.6,4.2,8.4
		c-1.2-0.1-2.4-0.1-3.6-0.2c-0.8-2.1-1.9-4.1-2.5-6.3c-0.7,2-1.6,3.9-2.4,5.9c-1.1,0-2.2-0.1-3.3-0.1c1.3-2.5,2.5-5,3.8-7.5
		c-1.1-2.6-2.4-5.1-3.5-7.7C7.9,14.1,9,14,10.1,14c0.7,2,1.6,3.9,2.2,5.9C13,17.7,14,15.7,14.8,13.7z"/>
	<path id="XMLID_4_" class="st0" d="M32,14.5c2.3,0,4.7,0,7,0c0,1.2,0,2.3,0,3.5c-2.3,0-4.7,0-7,0C32,16.8,32,15.7,32,14.5z"/>
	<path id="XMLID_3_" class="st0" d="M32,20c2.3,0,4.7,0,7,0c0,1.2,0,2.3,0,3.5c-2.3,0-4.7,0-7,0C32,22.3,32,21.2,32,20z"/>
	<path id="XMLID_2_" class="st0" d="M32,25.5c2.3,0,4.7,0,7,0c0,1.2,0,2.3,0,3.5c-2.3,0-4.7,0-7,0C32,27.8,32,26.7,32,25.5z"/>
	<path id="XMLID_1_" class="st0" d="M32,31c2.3,0,4.7,0,7,0c0,1.2,0,2.3,0,3.5c-2.3,0-4.7,0-7,0C32,33.3,32,32.2,32,31z"/>
</g>
</svg>
