<?xml version="1.0" encoding="utf-8"?>
<!-- Generator: Adobe Illustrator 19.0.0, SVG Export Plug-In . SVG Version: 6.00 Build 0)  -->
<svg version="1.1" id="Layer_4" xmlns="http://www.w3.org/2000/svg" xmlns:xlink="http://www.w3.org/1999/xlink" x="0px" y="0px"
	 viewBox="0 0 174.3 112.5" enable-background="new 0 0 174.3 112.5" xml:space="preserve">
<g id="Layer_3">
</g>
<path id="XMLID_9_" fill="#FFFFFF" d="M174.3,0H90.9H0c2,25.8,22.6,46.3,47.8,46.3c0.9,0,1.8,0.1,2.7,0.1C57.4,67.6,76.7,83,99.5,83
	c4.1,0,8-0.5,11.8-1.5c0.6,0.5,1.3,1,1.9,1.5c12.8,17.9,33.3,29.4,56.4,29.4c1.6,0,3.2-0.1,4.7-0.2V0z M112,81.4L112,81.4L112,81.4
	c0.2,0.3,0.5,0.7,0.7,1C112.5,82.1,112.3,81.7,112,81.4z"/>
</svg>
