<?xml version="1.0" encoding="utf-8"?>
<!-- Generator: Adobe Illustrator 19.0.0, SVG Export Plug-In . SVG Version: 6.00 Build 0)  -->
<svg version="1.1" id="Layer_1" xmlns="http://www.w3.org/2000/svg" xmlns:xlink="http://www.w3.org/1999/xlink" x="0px" y="0px"
	 viewBox="180.1 -19.5 255 84" style="enable-background:new 180.1 -19.5 255 84;" xml:space="preserve">
<style type="text/css">
	.st0{fill:#DBEAF5;}
	.st1{fill:#C5D6E2;}
	.st2{fill:#FFFFFF;}
</style>
<g id="XMLID_29_">
	<path id="XMLID_32_" class="st0" d="M257.1,8.7c0-10.7,3.1-21,8.4-29.2h-85.6C181.4-1.3,197.5,14,217.1,14c0.7,0,1.4,0.1,2.1,0.1
		c5.4,15.9,20.4,27.4,38.1,27.4c3.3,0,6.6-0.4,9.8-1.2C260.8,31.3,257.1,20.4,257.1,8.7z"/>
	<path id="XMLID_33_" class="st1" d="M257.1,8.7c0-10.7,3.1-21,8.4-29.2h-14.8c-2.6,6-4.1,13-4.1,20.2c0,17.2,8.4,32.4,21.4,41.9
		C261.1,32.3,257.1,21,257.1,8.7z"/>
	<path id="XMLID_34_" class="st2" d="M265.5-20.1c-5.3,7.8-8.4,18.2-8.4,28.9c0,30.3,24.5,54.7,54.8,54.7c22.2,0,41.3-13.2,50-32.2
		c1.6,0.2,3.3,0.3,5,0.3c17.6,0,32.2-12.7,35.2-29.3c1.6,0.3,3.3,0.6,5,0.6c14,0,25.7-10.6,28.2-23H265.5z"/>
</g>
</svg>
