<?xml version="1.0" standalone="no"?>
<!DOCTYPE svg PUBLIC "-//W3C//DTD SVG 1.1//EN" "http://www.w3.org/Graphics/SVG/1.1/DTD/svg11.dtd">
<svg xmlns="http://www.w3.org/2000/svg">
<metadata>Copyright (C) 2016 by original authors @ fontello.com</metadata>
<defs>
<font id="icon" horiz-adv-x="1000" >
<font-face font-family="icon" font-weight="400" font-stretch="normal" units-per-em="1000" ascent="850" descent="-150" />
<missing-glyph horiz-adv-x="1000" />
<glyph glyph-name="arr-l-left" unicode="&#xe800;" d="m372 681c-17 0-27-15-38-25-95-94-188-190-284-283-15-12-11-39 5-47 103-101 203-205 307-304 18-11 45 9 37 29-6 18-23 27-34 40-79 78-157 157-236 235 261 0 551-1 811 1 20 4 27 36 9 47-16 9-36 3-54 5-244 0-519 0-763 0 87 89 178 175 263 266 7 15-5 37-23 36z" horiz-adv-x="1000" />
<glyph glyph-name="arr-l-right" unicode="&#xe801;" d="m628 681c17 0 27-15 38-25 95-94 188-190 284-283 15-12 12-39-5-47-103-101-203-205-307-304-18-11-44 9-37 29 6 18 23 27 35 40 78 78 156 157 235 235-261 0-551-1-811 1-20 4-27 36-9 47 16 9 36 3 54 5 244 0 519 0 763 0-87 89-178 175-263 266-7 15 5 37 23 36z" horiz-adv-x="1000" />
<glyph glyph-name="arw-down-w" unicode="&#xe802;" d="m984 584c0 4-1 8-5 12-6 6-16 6-23 0l-456-456-456 456c-6 6-17 6-23 0-7-7-7-17 0-24l467-467c7-7 17-7 24 0l467 467c4 3 5 8 5 12z" horiz-adv-x="1000" />
<glyph glyph-name="arw-left-w" unicode="&#xe803;" d="m734-134c4 0 8 1 12 5 6 6 6 16 0 23l-456 456 456 456c6 7 6 17 0 23s-17 7-24 0l-468-467c-6-7-6-17 0-24l468-467c3-4 8-5 12-5z" horiz-adv-x="1000" />
<glyph glyph-name="arw-right-w" unicode="&#xe804;" d="m266-134c-4 0-8 1-12 5-6 6-6 16 0 23l456 456-456 456c-6 7-6 17 0 23 7 7 17 7 24 0l468-467c6-7 6-17 0-24l-468-467c-3-4-8-5-12-5z" horiz-adv-x="1000" />
<glyph glyph-name="warning41" unicode="&#xe805;" d="m972 153l-329 569c-29 52-84 83-143 83-59 0-114-31-144-83l-334-579c-29-51-29-114 0-165 30-52 85-83 144-83h668c0 0 0 0 0 0 92 0 166 74 166 166 0 34-10 66-28 92z m-401-55c0-39-30-69-71-69s-71 30-71 69v1c0 39 30 70 71 70s71-30 71-70v-1z m1 466l-35-306c-2-22-17-36-37-36s-35 14-37 36l-35 306c-3 24 10 41 32 41h80c22 0 35-18 32-41z" horiz-adv-x="1000" />
<glyph glyph-name="arw-up-w" unicode="&#xe806;" d="m16 116c0-4 1-8 5-12 6-6 17-6 23 0l456 456 456-456c7-6 17-6 23 0 7 7 7 17 0 24l-467 468c-7 6-17 6-24 0l-467-468c-4-3-5-8-5-12z" horiz-adv-x="1000" />
<glyph glyph-name="call-center" unicode="&#xe807;" d="m994 248c-11-50-58-90-109-93-12-2-26 4-29 16 0 5 0 10 0 14h-177c-10-27-39-47-68-46-37 0-69 32-70 68-2 39 32 75 71 74 9 0 18-2 26-5 18-7 32-21 39-38h179c0 44 0 87 0 130-1 5 0 10 1 14-2 14-6 27-10 41-10 34-26 66-45 95-40 58-95 104-160 131-44 19-92 29-142 29-38 0-74-6-108-16-34-11-66-26-95-46-58-39-104-95-132-160-10-23-17-48-22-73 0-1 0-2 1-3 1-65 0-131 0-196 2-11-3-24-15-28-29-3-59 8-81 26-38 29-54 82-41 127 10 37 40 68 76 80 3 18 7 35 12 51 13 40 31 77 54 111 45 68 110 121 186 154 51 21 107 33 165 33 44 0 86-7 126-19 40-12 77-30 111-53 67-46 121-111 153-187 12-28 21-58 27-89 13-5 25-12 36-21 36-28 52-77 41-121z m-385-202c-33-15-70-24-109-24-36 0-70 7-101 20-47 20-86 53-114 94-14 21-25 44-33 68-7 25-12 51-12 78 0 35 8 70 21 101 20 46 52 86 94 114 21 14 43 25 68 32 24 8 50 12 77 12 36 0 70-7 101-20 47-20 86-53 114-94 14-21 25-44 33-69 8-24 12-50 12-77h60c0 44-9 86-25 125-25 57-65 106-116 140-26 18-54 31-84 41-30 9-62 14-95 14-44 0-86-9-124-25-58-24-106-65-141-116-17-25-31-53-40-83-9-30-15-62-15-95 0-44 9-87 26-125 24-57 64-106 115-140 26-18 54-31 84-41 30-9 62-14 95-14 48 0 93 10 134 29 41 19 77 47 106 80l-45 40c-24-28-53-50-86-65z" horiz-adv-x="1000" />
<glyph glyph-name="check-c" unicode="&#xe808;" d="m990 677c4-4 7-9 7-16 0-7-3-13-7-18l-622-621c-6-5-12-8-17-8-6 0-12 3-17 8l-311 311c-11 11-11 22 0 33 12 12 23 12 34 0l294-293 605 604c11 11 22 11 34 0z" horiz-adv-x="1000" />
<glyph glyph-name="check-w" unicode="&#xe809;" d="m352-38c-17 0-34 8-45 21l-267 306c-22 25-19 63 6 84 25 22 62 19 84-5l221-255 519 604c21 25 59 28 84 6 25-21 28-59 6-84l-563-656c-11-13-28-21-45-21 0 0 0 0 0 0z" horiz-adv-x="1000" />
<glyph glyph-name="close-c" unicode="&#xe80a;" d="m535 351l442-444c12-12 12-23 0-35-5-5-10-8-17-8-5 0-11 3-17 8l-443 443-443-443c-6-5-12-7-17-7-6 0-12 2-17 7-12 12-12 23 0 35l442 444-442 442c-5 4-8 10-8 17 0 7 3 13 8 18 11 10 23 10 34 0l443-443 443 443c11 10 23 10 34 0 5-5 8-11 8-18 0-7-3-13-8-17l-442-442z" horiz-adv-x="1000" />
<glyph glyph-name="close-k" unicode="&#xe80b;" d="m94 796c-28-1-49-36-35-60 16-24 40-40 59-62 108-108 216-217 325-325-127-127-255-252-381-380-16-22-4-59 23-64 20-4 39 8 50 23 122 122 243 244 364 365 128-127 254-256 384-383 20-13 54-4 60 21 7 20-4 42-20 53-121 122-243 244-365 365 127 128 256 255 381 385 15 21 2 55-24 59-19 5-39-4-50-20-122-121-244-243-366-364-128 126-253 255-382 380-7 4-15 7-23 7z" horiz-adv-x="1000" />
<glyph glyph-name="desk-c" unicode="&#xe80c;" d="m957 305h-21v407c0 23-19 42-43 42h-850c-23 0-42-19-42-42v-592c0-24 19-43 42-43h304c-1-4-2-9-2-14v-75c0-23 19-42 42-42h203c23 0 42 19 42 42v75c0 5-1 10-3 14h125v-89c0-23 19-42 43-42h160c23 0 42 19 42 42v274c0 24-19 43-42 43z m-914 421h850c8 0 14-6 14-14v-407h-110c-24 0-43-19-43-43v-55h-725v505c0 7 7 14 14 14z m547-752h-203c-8 0-14 6-14 14h231c0-7-7-14-14-14z m14 89v-46h-231v46c0 8 6 14 14 14h203c7 0 14-6 14-14z m-14 42h-203-344c-7 0-14 7-14 15v59h725v-74h-164z m381-117c0-8-6-14-14-14h-160c-8 0-14 6-14 14v103 171c0 8 6 14 14 14h124 36c8 0 14-6 14-14v-274z" horiz-adv-x="1000" />
<glyph glyph-name="edit-c" unicode="&#xe80d;" d="m1 36l0-179 180 1 535 523-180 178z m632 619l181-178 186 188-181 178z" horiz-adv-x="1000" />
<glyph glyph-name="email-btn-c" unicode="&#xe80e;" d="m19 569c-1 0-1 0-1 0l0-691c0 0 1-1 2-1l961 0c0 0 1 1 1 1l0 691c0 1 0 1-1 0l-480-390c0-1-1-1-2 0l-480 390c0 1 0 1 0 0z m1 232c0 0 0-128 0-129l480-354c0 0 1 0 1 0l479 354c1 1 1 129 0 129z" horiz-adv-x="1000" />
<glyph glyph-name="exclamation-mark" unicode="&#xe80f;" d="m990 22l-424 733c-13 24-39 38-66 38-27 0-53-14-66-38l-424-733c-13-24-13-53 0-77 14-24 39-38 67-38h846c28 0 53 14 67 38 13 24 13 53 0 77z m-913-39l423 734 423-734h-846z m370 469l22-251c1-15 13-27 28-29 18-1 33 11 34 29l22 251c0 3 0 7 0 10-2 29-28 51-58 48-29-2-51-28-48-58z" horiz-adv-x="1000" />
<glyph glyph-name="facebook-w" unicode="&#xe810;" d="m707 350h-133v-481h-199v481h-99v166h99v99c0 135 56 216 216 216h132v-166h-83c-62 0-66-23-66-66l0-83h150l-17-166z" horiz-adv-x="1000" />
<glyph glyph-name="link-c" unicode="&#xe811;" d="m423 109l-88-88c-23-23-60-23-83 0l-82 82c-23 23-23 60 0 83l248 248c23 23 60 23 82 0l83-83 83 83-83 82c-69 69-179 69-248 0l-248-247c-68-69-68-180 0-248l83-83c68-69 179-69 248 0l139 140c-46-3-92 7-134 31z m490 573l-82 82c-69 69-180 69-248 0l-140-139c46 3 93-8 134-32l89 89c22 22 59 22 82 0l83-83c23-23 23-60 0-83l-248-247c-23-23-60-23-83 0l-82 82-83-82 83-83c68-69 179-69 248 0l247 248c69 68 69 179 0 248z" horiz-adv-x="1000" />
<glyph glyph-name="user" unicode="&#xe812;" d="m501-129c-149 0-298 1-447 0-25 0-36 7-34 33 2 34 1 69 4 103 3 55 36 88 80 118 104 71 222 93 343 107 110 13 214-13 319-43 57-16 107-45 155-78 42-30 61-75 61-127 0-28-1-55 1-83 1-23-9-30-32-30-150 1-300 0-450 0z m1 475c-153-1-239 104-243 241-5 142 107 242 243 242 137 0 247-103 242-242-5-140-92-240-242-241z" horiz-adv-x="1000" />
<glyph glyph-name="user-c" unicode="&#xe813;" d="m965 72c8-28 1-50-21-67-131-98-279-148-444-148-165 0-313 49-444 148-22 17-29 39-20 67 25 77 68 143 128 199 61 55 131 92 211 113-37 22-66 52-88 89-22 38-33 79-33 123 0 68 24 126 72 174 48 49 106 73 174 73 68 0 126-24 174-72 48-49 72-107 72-175 0-44-11-85-33-122-22-38-51-68-88-90 80-20 150-58 211-113 60-55 103-122 129-199z m-52-28c5 3 6 7 5 12-29 88-81 159-158 213-77 54-163 81-260 81-96 0-183-27-260-81-77-54-129-125-158-213-1-5 0-9 5-12 119-91 257-137 413-137 156 0 294 46 413 137z m-552 691c-39-38-58-85-58-139s19-101 58-139c38-39 85-58 139-58s101 19 139 58c39 38 58 85 58 139s-19 101-58 139c-38 39-85 58-139 58s-101-19-139-58z" horiz-adv-x="1000" />
<glyph glyph-name="update-source-w" unicode="&#xe814;" d="m938 349c-33 34-78 53-125 54 0 1 1 2 1 4 0 68-27 132-75 180s-113 75-181 75c-49 0-97-14-138-40-39-25-70-60-91-102-18 9-37 13-56 13-32 0-63-11-87-32-24-20-39-47-45-77-79-28-132-103-132-187 0-54 21-103 58-141 38-37 87-58 141-58h601l5 0v0c47 1 91 20 124 53 35 35 53 81 53 129 0 49-19 95-53 129z m-129-271l-7 0h-594c-88 0-159 71-159 158 0 68 43 128 107 150l21 7 4 22c7 45 46 77 92 77 14 0 28-3 41-10l34-16 16 33c35 75 111 123 194 123 118 0 215-97 215-215 0-1 0-1 0-1l0-1 0-1c0-1 0-3 0-4l-1-37 37-1c78 0 142-64 142-142 0-78-64-141-142-142z m-199 224c0-61-49-110-110-110s-110 49-110 110c0 59 48 107 106 109v-63l134 78-134 77v-51c-81-2-146-69-146-150 0-83 67-151 150-151 83 0 150 68 150 151v4h-40v-4z" horiz-adv-x="1000" />
<glyph glyph-name="twitter-w" unicode="&#xe815;" d="m880 332c-82-330-627-470-878-128 96-91 263-99 369 10-62-9-107 52-31 85-69-7-107 30-123 61 17 16 34 24 69 27-76 17-103 54-112 99 21 5 47 9 61 7-66 35-88 87-85 126 118-44 193-79 256-113 22-12 47-33 75-61 36 95 81 193 156 242-1-11-7-22-14-30 21 20 49 33 77 37-3-21-34-34-52-40 14 4 89 37 97 18 9-21-52-31-62-35-8-3-16-6-23-9 94 10 185-68 211-165 2-7 4-15 5-23 35-13 98 0 118 13-15-35-53-60-109-65 27-11 78-17 113-11-22-24-57-46-118-45" horiz-adv-x="1000" />
<glyph glyph-name="trash-t" unicode="&#xe816;" d="m149 533v-54-558c0-29 24-54 54-54h594c30 0 54 25 54 54v558 54h-108v-54-450c0-30-23-54-53-54h-380c-29 0-53 24-53 54v450 54h-108z m55 293v-70h-157v-134h906v134h-160v70h-589z" horiz-adv-x="1000" />
<glyph glyph-name="text-type" unicode="&#xe817;" d="m455 674l-351 0c-12 0-22 4-30 12-9 7-13 17-13 29 0 11 4 20 13 28 8 8 18 12 30 12l351 0c13 0 24-4 33-12 8-8 12-17 12-28 0-12-4-22-12-29-9-8-20-12-33-12z m-381-232c-9 8-13 18-13 30 0 12 4 22 13 29 8 8 18 12 30 12l792 0c12 0 22-4 31-12 8-7 12-17 12-29 0-12-4-22-12-30-9-8-19-11-31-11l-792 0c-12 0-22 3-30 11z m30-173l792 0c12 0 22-3 31-11 8-8 12-18 12-30 0-12-4-21-12-29-9-8-19-12-31-12l-792 0c-12 0-22 4-30 12-9 8-13 17-13 29 0 12 4 22 13 30 8 8 18 11 30 11z m0-243l792 0c12 0 22-4 31-12 8-7 12-17 12-27 0-12-4-22-12-30-9-8-19-12-31-12l-792 0c-12 0-22 4-30 12-9 8-13 18-13 30 0 10 4 20 13 27 8 8 18 12 30 12z" horiz-adv-x="1000" />
<glyph glyph-name="tag-line" unicode="&#xe818;" d="m257 699c-27 0-53-10-73-28-22-19-35-46-37-74-1-28 9-55 29-76 20-22 49-34 79-34 28 0 54 10 74 28 22 19 35 46 36 74 1 28-9 55-29 76-20 21-49 34-79 34z m63-108c-1-16-8-31-21-42-12-11-27-17-44-17-18 0-35 7-46 20-12 12-17 27-17 43 1 16 9 31 21 42 12 11 28 17 44 17 18 0 35-7 47-20 11-12 17-27 16-43z m657-249c-1 1-121 122-241 243-70 70-126 126-167 167-24 24-43 42-56 55-7 6-12 12-16 15-7 7-12 12-21 12l-308 0-152-159v-288l508-531 469 470-16 16z m-452-421l-464 484v252l126 132h280c41-39 288-287 463-463l-405-405z" horiz-adv-x="1000" />
<glyph glyph-name="tag-full" unicode="&#xe819;" d="m168 834l-152-159 0-288 508-531 469 470-16 16c-1 1-121 122-241 243-70 70-126 126-167 167-24 24-43 42-56 55-7 6-12 12-16 15-7 7-12 12-21 12l-308 0z m89-135c30 0 59-13 79-34 20-21 30-48 29-76-1-28-14-55-36-74-20-18-46-28-74-28-30 0-59 12-79 34-20 21-30 48-29 76 2 28 15 55 37 74 20 18 46 28 73 28z" horiz-adv-x="1000" />
<glyph glyph-name="support" unicode="&#xe81a;" d="m858 223c3 8 12 12 20 8 8-3 12-12 8-20-2-6-5-12-8-18v0 0c-3-6-6-12-9-19-3-5-7-11-10-17-4-6-8-12-11-17l0 0c-4-6-8-11-12-17l-1 0c-4-6-8-11-11-15-5-6-9-11-14-16-4-5-9-10-13-14l-1-1c-5-4-9-9-14-13l0 0c-5-4-10-9-15-13v0c-6-5-11-9-16-13-6-4-11-8-17-11-5-4-11-8-17-11-6-4-11-7-17-10l-1-1c-6-3-12-6-17-9l-1 0c-6-3-12-6-18-8l-1-1-8-3 0 0v0l-10-4 0 0-9-3-1 0v0l-9-3-1-1-9-2 0 0v0l-10-3c-8-2-17 3-19 11-2 8 3 17 11 19l10 3v0l8 2 0 0 10 4v0l8 3h0l9 3 8 3 1 1c6 2 11 5 16 7l1 1c6 2 11 5 16 8l1 0c5 3 11 6 16 9 5 4 11 7 16 11 5 3 10 7 15 10 5 4 10 8 15 12h0 0c4 4 9 8 14 12l0 0 0 0c4 4 8 8 12 12l1 1c5 5 9 9 13 13 4 5 8 10 12 15 4 4 8 9 11 13l1 1c4 5 7 10 11 15l0 0v0c3 6 7 11 10 16 3 5 6 11 9 16 3 6 6 11 9 17v0c2 5 5 11 8 17z m-757 232c-17-3-33-11-45-23-15-15-25-37-25-60 0-24 10-45 25-61 12-12 28-20 45-23v167l0 0z m-67-1c21 21 50 34 82 34h1c8 0 15-7 15-16v-201 0c0-9-7-16-15-16-33 0-62 13-83 34-21 21-34 50-34 83s13 61 34 82z m849 34h1c32 0 61-13 82-34l0 0c21-21 34-50 34-82 0-33-13-62-34-83s-50-34-83-34c-8 0-15 7-15 16v0 202c0 8 7 15 15 15l0 0z m61-56l0 0c-12 12-28 20-45 23v-167c17 3 33 11 45 23 15 16 25 37 25 61s-10 44-25 60z m-802 93c-3-8-12-11-20-8-8 3-12 12-8 20 16 38 37 72 62 103 26 32 56 59 90 82 34 23 72 41 111 53 40 12 81 18 123 18 9 0 16-7 16-15s-7-16-16-16c-39 0-77-5-114-17-36-11-71-27-103-49-31-21-59-46-83-75-23-29-43-61-58-96z m358-506c15 0 29-7 40-17l0 0c10-10 16-24 16-39 0-16-6-30-16-40-10-10-25-16-40-16-15 0-29 6-39 16l-1 0c-10 10-16 24-16 40 0 15 6 29 16 39 11 10 25 17 40 17l0 0z m18-39l0 0c-5 5-11 7-18 7s-13-3-17-7c-5-4-8-11-8-17 0-7 3-14 7-18l1 0c4-4 10-7 17-7 7 0 13 3 18 7 4 5 7 11 7 18 0 6-3 13-7 17z m368 557c4-8 0-17-8-20s-17 0-20 8c-15 35-35 67-58 96-24 28-52 54-83 75-32 21-67 38-103 49-37 11-75 17-114 17-9 0-16 7-16 16s7 15 16 15c42 0 83-6 123-18 39-12 77-30 111-53 34-23 64-51 90-82 25-31 46-65 62-103z m-693-165c0 1 0 3 0 5 0 85 34 161 90 217 55 56 132 90 217 90 85 0 162-34 217-90l0 0c56-56 90-132 90-217 0-2 0-4 0-5h31c0 1 1 3 1 5 0 93-38 178-100 239v0l0 0 0 0c-61 61-146 99-239 99-93 0-178-38-239-99-62-61-100-146-100-239 0-2 0-4 1-5h31z" horiz-adv-x="1000" />
<glyph glyph-name="support-w1" unicode="&#xe81b;" d="m491 792c-121-2-241-61-317-156-25-32-47-67-61-105-2-16 16-29 30-22 12 5 14 20 20 31 49 100 144 176 253 200 99 23 207 4 291-53 63-41 112-102 141-171 8-13 32-11 37 4 5 12-4 24-8 35-56 117-168 204-295 229-30 6-60 8-91 8z m5-77c-106 0-210-55-271-141-42-59-66-132-63-204 1-7 10-4 15-5 9 0 18 0 27 0-4 97 42 194 121 250 68 51 160 70 243 50 79-19 150-71 189-142 28-47 41-103 39-158 14 0 28 0 43 0 4 105-45 210-127 276-61 48-138 76-216 74z m380-223c-13 0-23-15-20-28 0-65-1-131 0-197 3-12 17-19 29-16 51 2 99 42 109 93 11 44-5 93-41 121-22 17-49 27-77 27z m-756 0c-51-1-99-38-113-87-13-46 3-99 41-128 23-18 52-29 81-25 12 3 17 17 15 28 0 65 1 130 0 196-3 10-13 17-24 16z m779-46c37-10 63-51 55-89-5-28-27-53-56-61 0 50 0 100 0 150l1 0z m-797-150c-38 10-64 51-56 90 6 28 28 53 56 60 0-50 0-100 0-150z m763-55c-11 0-20-11-22-22-41-89-118-162-210-196-15-6-30-10-45-16-14-8-13-30 1-37 12-6 26 2 38 5 109 35 203 117 251 221 4 8 9 16 9 25-1 11-11 20-22 20z m-365-211c-34 1-63-30-61-63 1-31 29-59 60-59 29-1 57 22 61 51 5 27-11 57-38 67-7 3-15 4-22 4z m1-42c14 0 23-20 13-31-7-10-26-8-31 4-5 11 2 26 15 26 1 0 2 1 3 1z" horiz-adv-x="1000" />
<glyph glyph-name="mail_direct" unicode="&#xe81c;" d="m920 501l-387-394c-17-18-48-15-66 2l-386 392h-48-20-11v-647h996v647h-32-46z m-869-42l260-260-260-260v520z m21-555l256 262 111-108c17-17 38-25 61-25 24 0 45 10 62 27l111 105 256-261h-857z m877 35l-260 260 260 260v-520z m-284 895l179-179c2-1 4-5 6-10 1-2 2-5 2-11 0-5-1-9-2-12-3-5-5-8-6-9l-179-179c-14-14-28-14-42 0-14 14-14 28 0 42l128 128h-572c-9 0-16 3-22 9-5 5-8 12-8 21 0 8 3 15 8 21 6 5 13 8 22 8h572l-128 128c-6 6-9 13-9 22 0 8 3 15 9 21 14 13 28 13 42 0z" horiz-adv-x="1000" />
<glyph glyph-name="login-1" unicode="&#xe81d;" d="m874 118l9-13c6-11 8-22 4-34-4-12-11-22-21-30-116-89-249-133-398-133-148 0-281 44-398 133-20 16-26 35-18 59 22 70 61 129 115 179 54 49 118 83 190 101-33 20-60 46-80 80-19 34-29 71-29 110 0 62 21 114 64 157 43 43 95 65 156 65 61 0 113-22 156-65 43-43 64-96 64-157 0-39-9-75-28-108-19-33-45-60-78-80 12-3 27-9 45-16 6-3 10-7 12-13 3-6 2-11 0-17-3-5-7-10-13-12-6-2-11-2-17 1-23 11-44 18-63 21-19 3-45 4-78 4-86 0-164-24-233-73-69-48-116-112-142-190-1-5 0-8 4-11 108-82 231-123 371-123 139 0 263 41 372 123 2 2 3 4 5 7-1 1-2 3-4 6-2 2-3 4-4 6l-20 28c-8 12-7 22 5 30 5 4 11 5 17 5 6-1 11-5 14-10 11-14 17-24 21-30z m-531 577c-34-34-52-76-52-124 0-49 18-91 52-125 35-35 76-52 125-52 49 0 90 17 125 52 34 34 51 76 51 125 0 48-17 90-51 124-35 35-76 52-125 52-49 0-90-17-125-52z m565-246l0-23c12-3 22-10 31-20 8-10 13-21 13-34l0-111c0-16-5-30-13-42-9-12-21-18-35-18l-154 0c-15 0-29 6-43 19-13 13-20 26-20 41l0 111c0 13 5 24 14 34 8 10 18 17 30 20l0 23c0 24 9 45 27 62 17 18 38 26 62 26 24 0 45-8 62-26 17-17 26-38 26-62z m-133-28l89 0 0 28c0 12-4 23-13 31-8 9-19 14-31 14-12 0-23-5-32-14-8-8-13-19-13-31l0-28z" horiz-adv-x="1000" />
<glyph glyph-name="network-t" unicode="&#xe81e;" d="m210 610c57 58 128 88 214 88 53 0 103-13 150-40s83-63 110-109c22 12 46 17 69 17 43 0 79-15 108-44 30-29 45-65 45-106 0-9-1-18-3-28 27-20 49-46 65-77s24-62 24-96c0-58-21-107-61-149-41-42-90-63-147-63h-195v45h199v3c45 0 83 16 114 48s47 71 47 117c0 28-7 55-22 81-15 26-35 46-60 61l-14 8 4 23c3 15 4 23 4 27 0 29-10 55-31 75-21 20-46 31-77 31-22 0-43-8-64-22l-22-16-12 24c-21 44-52 79-94 105-41 26-86 39-135 39-74 0-135-24-184-73-52-53-78-114-78-181v-33l-11-6c-31-12-54-32-72-59-17-27-26-57-26-89 0-45 16-83 48-116 32-32 70-48 115-48l6 1h366v-45h-357c-1 0-3 0-6 0-3-1-6-1-8-1-57 0-107 21-148 62-42 40-63 89-63 146 0 38 11 74 31 107s47 59 80 78v3c0 82 31 152 91 212z" horiz-adv-x="1000" />
<glyph glyph-name="padlock58" unicode="&#xe81f;" d="m752 428v172c0 138-112 250-250 250h-4c-137 0-249-112-249-250v-172h123v172c0 70 57 126 126 126h4c69 0 126-56 126-126v-172h124z m-641-75v-478c0-14 11-25 25-25h728c14 0 25 11 25 25v478c0 14-11 25-25 25h-728c-14 0-25-11-25-25z m305-172c1 45 38 82 83 82 47 1 85-37 85-84 0-30-15-56-38-71-9-5-13-16-11-26l21-101c4-16-8-30-24-30h-64c-16 0-27 14-24 30l21 101c2 10-2 21-11 26-23 16-39 43-38 73z" horiz-adv-x="1000" />
<glyph glyph-name="passw-c" unicode="&#xe820;" d="m745 451l10 0c13 0 24-4 33-11 9-7 13-17 13-30l0-396c0-13-4-26-13-37-10-11-21-17-33-17l-509 0c-13 0-24 6-33 17-9 11-14 24-14 37l0 396c0 13 4 23 13 30 9 7 20 11 34 11l9 0 0 47c0 67 24 124 72 171 48 47 105 71 173 71 68 0 125-24 173-71 48-47 72-104 72-171l0-47z m19-443l0 395c0 6-3 9-9 9l-48 0 0 86c0 56-20 104-60 144-41 39-90 59-147 59-57 0-106-20-146-59-41-40-61-88-61-144l0-86-47 0c-6 0-10-3-10-9l0-395c0-6 4-9 10-9l509 0c6 0 9 3 9 9z m-383 607c33 33 73 49 119 49 46 0 86-16 119-49 34-32 51-71 51-115l0-88-340 0 0 88c0 44 17 83 51 115z m251-164l0 49c0 34-14 64-40 89-26 25-57 37-92 37-36 0-66-12-92-37-27-25-40-55-40-89l0-49 264 0z m-196-141c18 18 39 28 65 28 25 0 47-9 65-28 18-18 27-39 27-65 0-27-10-49-30-68l29-77c2-7 2-12-3-18-4-5-9-8-15-8l-147 0c-6 0-11 3-15 8-3 5-4 11-3 18l30 77c-20 18-30 41-30 68-1 26 8 47 27 65z" horiz-adv-x="1000" />
<glyph glyph-name="phone" unicode="&#xe821;" d="m59 157c69 0 135 11 197 31 19 7 41 2 56-13l121-121c156 79 284 207 364 363l-122 122c-15 15-19 36-13 55 20 62 31 128 31 197 0 31 25 55 55 55h193c31 0 55-24 55-55 0-518-419-937-937-937-30 0-55 24-55 55v193c0 30 24 55 55 55z" horiz-adv-x="1000" />
<glyph glyph-name="photo-type" unicode="&#xe822;" d="m895 569l-127 21-40 100c-13 34-45 56-81 56l-293 0c-37 0-69-22-82-56l-40-100-127-21c-43-8-74-44-74-87l0-440c0-48 40-88 88-88l762 0c48 0 88 40 88 88l0 440c0 43-31 79-74 87z m15-527c0-16-13-29-29-29l-762 0c-16 0-29 13-29 29l0 440c0 14 10 26 24 29l160 26 52 132c5 11 16 18 28 18l293 0c11 0 22-7 27-18l52-132 160-26c14-3 24-15 24-29l0-440z m-410 381c-65 0-117-52-117-117l0 0c0-8 6-15 15-15 8 0 14 7 14 15l0 0c0 49 40 88 88 88 8 0 15 7 15 15 0 8-7 14-15 14z m0 117c-129 0-234-104-234-234 0-129 105-234 234-234 129 0 234 105 234 234 0 130-105 234-234 234z m134-348c-64-74-175-83-248-19-74 63-83 174-19 247 63 74 174 83 247 19 74-63 83-174 20-247z" horiz-adv-x="1000" />
<glyph glyph-name="pin-c" unicode="&#xe823;" d="m823 597c-4 13-11 27-16 39-63 151-201 206-312 206-148 0-311-100-334-305v-42c0-2 1-18 2-26 12-97 90-201 147-299 62-105 127-208 191-311 39 67 78 135 117 201 10 19 22 38 33 56 7 13 20 25 26 36 62 114 161 228 161 341v46c0 12-15 55-15 58z m-324-211c-44 0-93 22-117 82-3 10-4 29-4 31v27c0 77 66 112 123 112 70 0 125-56 125-126 0-70-58-126-127-126z" horiz-adv-x="1000" />
<glyph glyph-name="play-down-c" unicode="&#xe824;" d="m991 737l-491-774-491 774h982z" horiz-adv-x="1000" />
<glyph glyph-name="play-left-c" unicode="&#xe825;" d="m887 841l-774-491 774-491 0 982z" horiz-adv-x="1000" />
<glyph glyph-name="play-right-c" unicode="&#xe826;" d="m113 841l774-491-774-491v982z" horiz-adv-x="1000" />
<glyph glyph-name="play-up-c" unicode="&#xe827;" d="m9-37l491 774 491-774h-982z" horiz-adv-x="1000" />
<glyph glyph-name="search-c" unicode="&#xe828;" d="m645 520c0-78-25-146-76-204l54-54c20 12 42 17 66 14 25-2 46-12 64-30l202-202c20-19 31-44 31-74 0-31-11-55-31-75-20-20-45-31-75-31-30 0-54 11-74 31l-125 125-78 78c-17 17-27 39-29 63-3 24 2 47 14 67l-54 53c-58-51-126-76-204-76-86 0-161 31-223 92-62 62-93 136-93 223 0 87 31 162 93 223 62 62 137 93 223 93 87 0 161-31 223-93 61-62 92-136 92-223z m235-607c15 0 29 5 40 17 12 11 17 24 17 40 0 15-5 28-17 39l-202 204c-10 10-24 16-40 16-15 0-29-6-40-16-11-12-16-26-16-41 0-16 5-29 16-40l203-202c11-12 24-17 39-17z m-362 419c53 52 79 115 79 188 0 74-26 137-79 189-52 52-115 78-188 78-74 0-137-26-189-78-52-52-78-115-78-189 0-73 26-136 78-188 52-53 116-79 189-79 73 0 136 26 188 79z" horiz-adv-x="1000" />
<glyph glyph-name="setting-c" unicode="&#xe829;" d="m884 451l55-10c14-2 26-9 36-21 10-11 15-24 15-39v-62c0-15-5-28-15-39-10-12-22-19-37-21l-54-10c-9 0-18-5-27-13-9-8-16-16-19-26-4-9-6-20-5-32 1-11 4-21 9-28l32-46c9-12 13-26 11-41-1-15-7-28-17-38l-43-43c-10-10-23-16-39-17-15-1-29 2-40 10l-46 33c-16 11-37 13-60 4-10-3-18-10-26-19-8-10-13-19-13-27l-10-55c-2-14-9-26-21-36-11-10-24-15-39-15h-63c-14 0-27 5-39 15-11 10-18 22-20 36l-10 55c-1 8-5 17-13 27-8 9-16 16-26 19-9 4-20 5-32 5-12-1-21-4-28-9l-46-33c-11-8-25-11-40-10-16 1-29 7-39 17l-43 43c-10 10-16 23-17 38-2 15 2 29 10 41l33 46c5 7 8 17 9 28 0 12-1 23-5 32-3 10-10 18-19 26-10 8-19 13-27 13l-56 10c-13 2-25 9-35 21-10 11-15 24-15 39v62c0 15 5 28 15 39 10 12 22 19 37 21l54 10c8 0 17 5 27 13 9 8 16 16 19 26 4 9 5 20 5 32-1 11-4 21-9 28l-33 46c-8 12-12 26-10 41 1 15 7 28 17 38l43 43c10 10 23 16 39 17 15 1 29-3 40-11l46-32c16-12 36-13 60-4 10 3 18 10 26 19 8 10 12 19 13 27l10 54c2 15 9 27 20 37 12 10 25 15 39 15h63c15 0 28-5 39-15 12-10 19-22 21-37l10-54c0-8 5-17 13-27 7-9 16-16 26-19 9-4 20-5 31-5 12 1 22 4 29 9l46 33c11 7 25 11 40 10 16-1 29-7 39-17l43-43c10-10 16-23 17-38 2-15-2-29-11-41l-32-46c-5-7-8-16-9-28 0-12 1-23 5-32 3-10 10-18 19-26 10-8 19-13 27-13z m56-132v62c0 7-3 11-9 12l-55 9c-18 3-35 11-50 25-15 14-27 28-34 44-6 14-9 32-7 53 1 21 7 39 18 54l31 46c5 6 4 11-1 16l-43 43c-5 5-10 6-16 1l-46-31c-13-10-30-16-50-18-21-2-40 1-57 7-16 7-30 19-44 34-14 15-22 31-25 50l-9 55c-1 6-5 9-12 9h-62c-7 0-11-3-12-9l-9-55c-3-18-11-35-25-50-14-15-28-27-44-34-13-5-27-7-45-7-25 0-46 6-63 18l-45 31c-6 5-11 4-16-1l-43-43c-5-5-6-10-1-16l31-46c11-15 17-33 18-54 2-21-1-39-7-53-7-16-19-30-34-44-15-14-31-22-49-25l-56-9c-6-1-9-5-9-12v-62c0-7 3-11 9-12l56-9c18-3 34-11 49-25 15-14 27-28 34-44 6-14 9-31 7-53-1-21-7-39-18-54l-31-46c-5-6-4-11 1-16l43-43c5-5 10-6 16-1l46 31c16 12 37 18 62 18 18 0 33-2 45-7 16-7 31-19 44-34 14-15 22-32 25-50l9-55c1-6 5-10 12-10h63c6 0 10 4 11 10l9 55c3 18 11 35 25 50 14 15 29 27 44 34 13 5 28 7 45 7 25 0 46-6 63-18l45-31c6-5 11-4 16 1l44 43c5 5 5 11 1 16l-32 46c-11 15-17 33-18 54-2 22 1 39 7 53 7 16 19 31 34 44 15 14 31 22 50 25l55 9c6 1 9 5 9 12z m-578 170c38 38 84 57 138 57s100-19 139-57c38-39 57-85 57-139s-19-100-57-138c-39-39-85-58-139-58s-100 19-138 58c-39 38-58 84-58 138s19 100 58 139z m34-243c29-29 64-43 104-43 40 0 75 14 104 43 29 29 43 64 43 104 0 40-14 75-43 104-29 29-64 43-104 43-40 0-75-14-104-43-29-29-43-64-43-104 0-40 14-75 43-104z" horiz-adv-x="1000" />
<glyph glyph-name="star-outline-w" unicode="&#xe82a;" d="m788-121c-4 0-9 1-13 4l-275 144-275-144c-9-5-21-5-29 2-9 6-13 16-11 27l52 306-222 217c-8 7-10 18-7 28 3 10 12 17 22 19l308 45 137 278c5 10 15 16 25 16 11 0 20-6 25-16l137-278 308-45c10-2 19-9 22-19 3-10 1-21-7-28l-222-217 52-306c2-11-2-21-11-27-5-4-10-6-16-6z m-288 207c4 0 9-1 13-3l238-126-45 266c-2 9 1 18 8 24l192 188-266 39c-9 1-17 7-21 15l-119 242-119-242c-4-8-12-14-21-15l-266-39 192-188c7-6 10-15 8-24l-45-266 238 126c4 2 9 3 13 3z" horiz-adv-x="1000" />
<glyph glyph-name="star" unicode="&#xe82b;" d="m989 473c9-29 3-52-20-70l-235-178 91-290c5-20 2-38-10-54-12-16-28-24-46-24-13 0-24 4-34 12l-235 179-234-179c-13-9-28-12-43-10-16 3-28 10-38 23-12 16-15 34-8 53l89 288-236 180c-22 18-28 41-19 70 4 12 11 22 21 30 10 8 21 11 33 11h290l90 289c4 11 10 21 20 29s22 11 34 11c13 0 25-4 35-12 11-8 18-18 21-30l90-287h291c11 0 22-3 32-11 10-8 17-18 21-30z" horiz-adv-x="1000" />
<glyph glyph-name="filter-close-in" unicode="&#xe82c;" d="m500 837c-269 0-487-218-487-487 0-269 218-487 487-487 269 0 487 218 487 487 0 269-218 487-487 487z m223-683c14-13 14-35 0-49-7-7-16-10-24-10-9 0-18 3-25 10l-174 174-174-174c-13-14-35-14-49 0-14 14-14 36 0 49l174 174-174 174c-14 14-14 36 0 49 14 14 36 14 49 0l174-174 174 174c14 14 36 14 49 0 14-13 14-35 0-49l-174-174 174-174z" horiz-adv-x="1000" />
<glyph glyph-name="filter-ok" unicode="&#xe82d;" d="m399 19c-16 0-30 7-40 19l-219 264c-19 22-15 55 7 73 22 19 55 16 73-6l177-214 382 506c17 22 49 27 73 10 22-18 27-50 10-73l-422-558c-9-13-24-21-40-21 0 0-1 0-1 0z" horiz-adv-x="1000" />
<glyph glyph-name="get-source-w" unicode="&#xe82e;" d="m210 713c57 59 128 89 214 89 53 0 103-14 150-41s83-62 110-108c22 11 46 17 69 17 43 0 79-15 108-44 30-30 45-65 45-107 0-8-1-17-3-27 27-21 49-46 65-77 16-31 24-63 24-96 0-58-21-107-61-149-41-42-90-63-147-63h-195v44h199v3c45 0 83 17 114 49 32 32 47 71 47 117 0 28-7 55-22 81-15 25-35 46-60 61l-14 8 4 23c3 14 4 23 4 26 0 30-10 55-31 76-21 20-46 30-77 30-22 0-44-7-64-21l-22-16-12 23c-21 45-52 80-94 106-41 26-86 39-135 39-74 0-135-24-184-73-52-54-78-114-78-181v-33l-11-6c-31-12-55-32-72-59-18-27-26-57-26-89 0-45 16-84 48-116 32-32 70-49 115-49l6 1h186v-44h-177c-1 0-4 0-6-1-3 0-6 0-8 0-57 0-107 20-148 61-42 41-63 90-63 147 0 38 10 74 31 107 20 33 47 59 80 78v3c0 81 30 152 91 211z m139-351l134 134c2 1 4 3 8 4 1 1 4 2 8 2 4 0 7-1 9-2 4-2 6-3 7-4l134-134c11-11 11-22 0-32-10-11-21-11-31 0l-96 96v-505c0-6-2-12-7-16-4-4-9-6-16-6-6 0-11 2-15 6-5 4-7 10-7 16v505l-96-96c-4-5-10-7-16-7-6 0-12 2-16 7-10 10-10 21 0 32z" horiz-adv-x="1000" />
<glyph glyph-name="lifebuoy-c" unicode="&#xe82f;" d="m972 350c0-85-22-165-66-238 8-11 13-25 15-42 0-19-8-36-22-51l-68-68c-12-12-28-19-45-21-18-1-34 4-48 14-73-44-153-66-238-66-85 0-165 22-238 66-14-10-30-15-48-14-18 2-33 9-45 21l-68 68c-12 13-19 28-20 45-2 18 3 34 13 48-44 73-66 153-66 238s22 165 66 238c-10 14-15 30-13 48 1 18 8 33 20 45l68 68c13 13 30 20 51 22 17-2 31-6 42-14 74 43 153 65 238 65 85 0 165-22 238-66 12 8 25 13 42 15 19 0 36-8 51-22l68-68c14-14 21-30 21-50 0-17-5-31-14-43 44-73 66-153 66-238z m-896 0c0-73 17-140 51-203l110 109c-11 29-16 61-16 94 0 33 5 64 16 93l-110 110c-34-62-51-130-51-203z m126 368l-67-69c-11-12-11-23 0-34l5-7v-1l117-118c25 43 60 77 105 104l-115 114c-3 1-5 3-8 7l-1 4c-7 6-12 9-18 9-6 0-11-3-18-9z m40-728l119 119c-44 24-78 58-102 102l-119-119-5-5c-11-12-11-24 0-35l67-68c5-4 11-7 18-7s12 3 17 7l5 6z m472 271c25 59 25 119-1 180 0 0-1 1-1 2 0 0 0 1 0 1s-1 1-1 2c-24 53-63 92-116 115 0 1-1 1-2 1-2 0-2 1-2 1-59 25-116 26-172 5-1 0-2-1-3-1s-2-1-2-1c0-1-1-1-2-1s-3-1-3-1c-56-24-96-64-121-120l-1-1c0-1 0-1 0-2-27-59-27-118-1-178 1-4 2-7 2-7 25-54 64-93 117-118 2 0 5-1 8-2 58-25 116-25 175 0 2 1 5 2 7 2 55 25 95 65 119 120-1 1 0 2 0 3z m-214 513c-71 0-139-17-203-51l110-110c29 11 60 16 93 16 33 0 65-5 94-16l109 110c-62 34-130 51-203 51z m0-848c73 0 141 17 203 51l-109 110c-63-23-125-23-188 0l-109-110c63-34 130-51 203-51z m258 784l-118-118c43-25 77-59 102-102l118 118 5 5c5 5 8 11 8 17 0 8-3 14-8 18l-67 68c-4 4-10 7-18 7-6 0-12-3-17-7l-5-6z m40-725l67 67c5 5 8 10 8 18 0 6-3 12-8 17l-5 5-118 119c-25-44-59-78-102-102l118-119 5-5c5-5 11-8 18-8s12 3 17 8z m-35 271l110-109c34 63 51 130 51 203s-17 141-51 203l-110-109c11-29 16-61 16-94s-5-65-16-94z" horiz-adv-x="1000" />
<glyph glyph-name="spin5" unicode="&#xe830;" d="m462 850c-6 0-11-5-11-11l0-183 0 0c0-6 5-11 11-11l69 0c1 0 1 0 1 0 7 0 12 5 12 11l0 183 0 0c0 6-5 11-12 11l-69 0c0 0 0 0-1 0z m250-47c-4 1-8-2-10-5l-91-158 0 0c-4-6-2-13 4-16l60-35c0 0 0 0 0 0 6-3 13-1 16 4l91 158c3 6 2 13-4 16l-61 35c-1 1-3 1-5 1z m-428-2c-2 0-4-1-6-2l-61-35c-5-3-7-10-4-16l91-157c0 0 0 0 0 0 3-6 10-8 16-5l61 35c5 4 7 11 4 16l-91 157c0 1 0 1 0 1-2 4-6 6-10 6z m620-163c-2 0-4 0-6-1l-157-91c0 0 0 0 0 0-6-3-8-10-5-16l35-61c4-5 11-7 16-4l157 91c1 0 1 0 1 0 6 3 7 10 4 16l-35 61c-2 3-6 5-10 5z m-810-4c-5 0-9-2-11-6l-35-61c-3-5-1-12 4-15l158-92 0 0c6-3 13-1 16 5l35 60c0 0 0 0 0 0 3 6 1 13-4 16l-158 91c-2 1-4 2-5 2z m712-235l0 0c-6 0-11-5-11-11l0-69c0-1 0-1 0-1 0-7 5-12 11-12l183 0 0 0c6 0 11 5 11 12l0 69c0 0 0 0 0 1 0 6-5 11-11 11l-183 0z m-794-5l0 0c-7 0-12-5-12-12l0-69c0 0 0 0 0-1 0-6 5-11 12-11l182 0 0 0c6 0 11 5 11 11l0 69c0 1 0 1 0 1 0 7-5 12-11 12l-182 0z m772-153c-4 0-8-2-10-6l-34-60c-1 0-1 0-1 0-3-6-1-13 4-16l158-91c6-3 13-2 16 4l35 61c3 5 1 12-4 15l-158 91 0 0c-2 1-4 2-6 2z m-566-5c-1 0-3 0-5-1l-157-91c0 0-1 0-1 0-5-3-7-11-4-16l35-61c3-5 10-7 16-4l157 91c0 0 0 0 0 0 6 3 8 10 5 16l-35 61c-3 3-7 5-11 5z m468-121c-2 0-4 0-6-1l-61-35c-5-4-7-11-4-16l91-157c0-1 0-1 0-1 3-6 11-7 16-4l61 35c5 3 7 10 4 16l-91 157c0 0 0 0 0 0-2 4-6 6-10 6z m-367-3c-4 1-8-2-10-5l-91-158c-3-6-1-13 4-16l61-35c5-3 12-1 15 4l92 158 0 0c3 6 1 13-5 16l-60 34c0 1 0 1 0 1-2 1-4 1-6 1z m149-57c-7 0-12-5-12-11l0-183 0 0c0-6 5-11 12-11l69 0c0 0 0 0 1 0 6 0 11 5 11 11l0 183 0 0c0 6-5 11-11 11l-69 0c-1 0-1 0-1 0z" horiz-adv-x="1000" />
</font>
</defs>
</svg>
