<?xml version="1.0" encoding="utf-8"?>
<!-- Generator: Adobe Illustrator 19.0.0, SVG Export Plug-In . SVG Version: 6.00 Build 0)  -->
<svg version="1.1" id="Layer_1" xmlns="http://www.w3.org/2000/svg" xmlns:xlink="http://www.w3.org/1999/xlink" x="0px" y="0px"
	 viewBox="0 0 44 44" style="enable-background:new 0 0 44 44;" xml:space="preserve">
<style type="text/css">
	.st0{fill:#733781;}
	.st1{fill:#FFFFFF;}
</style>
<g id="onenote">
	<path id="XMLID_5_" class="st0" d="M23,0.5h3c0,1.3,0,2.7,0,4c4.7,0.2,9.4-0.4,14.1,0.3c0.2,0.5,0.3,1.1,0.5,1.6
		c1.2,0.2,3.1,0.1,3.3,1.7c0.4,2.9,0.1,5.9-0.1,8.8c0.3,3.1,0.5,6.3-0.1,9.4c0.5,2.9,0.5,5.8,0.2,8.7c-0.2,1.6-2.1,1.4-3.2,1.7
		c-0.2,0.8-0.2,1.7-0.6,2.4c-0.9,0.6-2,0.4-3,0.5c-3.7,0-7.3,0-11,0c0,1.3,0,2.7,0,4h-3.1c-7.6-1.4-15.2-2.7-22.8-4
		c0-11.7,0-23.3,0-35C7.7,3.2,15.3,1.9,23,0.5z"/>
	<path id="XMLID_4_" class="st1" d="M26,6c4.3,0,8.7,0,13,0c0,0.7,0,1.3,0,2c1.1,0,2.3,0,3.5,0.1c0.1,2.6,0.1,5.3,0,7.9
		C41.3,16,40.1,16,39,16c0,7.3,0,14.7,0,22c-4.3,0-8.7,0-13,0c0-1.3,0-2.7,0-4c3.2,0,6.3,0,9.5,0c0-0.7,0-1.3,0-2
		c-3.2,0-6.3,0-9.5,0c0-0.8,0-1.7,0-2.5c3.2,0,6.3,0,9.5,0c0-0.7,0-1.3,0-2c-3.2,0-6.3,0-9.5,0c0-0.8,0-1.7,0-2.5c3.2,0,6.3,0,9.5,0
		c0-0.7,0-1.3,0-2c-3.2,0-6.3,0-9.5,0c0-0.8,0-1.7,0-2.5c3.2,0,6.3,0,9.5,0c0-0.7,0-1.3,0-2c-3.2,0-6.3,0-9.5,0c0-0.8,0-1.7,0-2.5
		c3.2,0,6.3,0,9.5,0c0-0.7,0-1.3,0-2c-3.2,0-6.3,0-9.5,0c0-0.8,0-1.7,0-2.5c3.2,0,6.3,0,9.5,0c0-0.7,0-1.3,0-2c-3.2,0-6.3,0-9.5,0
		C26,8.3,26,7.2,26,6z"/>
	<path id="XMLID_3_" class="st1" d="M15.4,13.6c1-0.1,2-0.1,3-0.2c0,5.5,0,11,0,16.6c-1.1,0-2.1-0.1-3.2-0.2
		c-2-3.8-4.1-7.6-6.1-11.4c0.1,3.7,0,7.4,0.1,11.1c-0.9-0.1-1.8-0.1-2.7-0.2c0-5.1,0-10.2,0-15.2c1-0.1,2.1-0.1,3.1-0.2
		c2,3.6,3.9,7.1,5.8,10.8C15.5,21,15.4,17.3,15.4,13.6z"/>
	<path id="XMLID_2_" class="st1" d="M40.5,17.5c0.6,0,1.3,0.1,2,0.1c0.1,2.6,0.1,5.3,0,7.9c-0.6,0-1.3,0.1-1.9,0.1
		C40.4,22.8,40.4,20.2,40.5,17.5z"/>
	<path id="XMLID_1_" class="st1" d="M40.5,27c0.6,0,1.3,0.1,2,0.1c0.1,2.6,0.1,5.2,0,7.8c-0.7,0-1.3,0.1-2,0.1
		C40.4,32.3,40.4,29.7,40.5,27z"/>
</g>
</svg>
