<?xml version="1.0" encoding="utf-8"?>
<!-- Generator: Adobe Illustrator 19.0.0, SVG Export Plug-In . SVG Version: 6.00 Build 0)  -->
<svg version="1.1" id="Layer_1" xmlns="http://www.w3.org/2000/svg" xmlns:xlink="http://www.w3.org/1999/xlink" x="0px" y="0px"
	 viewBox="0 0 44 44" style="enable-background:new 0 0 44 44;" xml:space="preserve">
<style type="text/css">
	.st0{fill:#D24625;}
	.st1{fill:#FFFFFF;}
</style>
<g id="powerpoint">
	<path id="XMLID_5_" class="st0" d="M23.1,0.8h2.8c0,1.5,0,3,0,4.4c5.3,0,10.6-0.1,15.8,0c1.1-0.1,2,0.8,1.9,1.9
		c0.1,9.2,0,18.5,0,27.7c0,1,0.1,2.1-0.5,3c-0.7,0.5-1.7,0.5-2.5,0.5c-4.9,0-9.9,0-14.8,0c0,1.6,0,3.3,0,4.9h-3.1
		c-7.5-1.4-15.1-2.6-22.6-4c0-11.5,0-23.1,0-34.6C7.9,3.4,15.5,2,23.1,0.8z"/>
	<path id="XMLID_4_" class="st1" d="M25.9,6.7c5.4,0,10.9,0,16.3,0c0,10,0,20.1,0,30.1c-5.4,0-10.9,0-16.3,0c0-1.3,0-2.6,0-4
		c4,0,7.9,0,11.9,0c0-0.7,0-1.3,0-2c-4,0-7.9,0-11.9,0c0-0.8,0-1.6,0-2.5c4,0,7.9,0,11.9,0c0-0.7,0-1.3,0-2c-4,0-7.9,0-11.9,0
		c0-1,0-1.9,0-2.9c2,0.6,4.2,0.6,5.9-0.6c1.9-1.1,2.9-3.3,3-5.4c-2.2,0-4.3,0-6.5,0c0-2.1,0-4.3,0-6.4c-0.8,0.2-1.6,0.3-2.4,0.5
		C25.9,10,25.9,8.3,25.9,6.7z"/>
	<path id="XMLID_3_" class="st0" d="M29.4,10.1c3.4,0.2,6.3,3,6.5,6.5c-2.2,0-4.3,0-6.5,0C29.4,14.4,29.4,12.2,29.4,10.1z"/>
	<path id="XMLID_2_" class="st1" d="M8.2,13.8c2.7,0.1,5.9-1.1,8.2,0.9c2.1,2.6,1.6,7.3-1.6,8.9c-1.1,0.6-2.4,0.5-3.6,0.5
		c0,1.9,0,3.9,0,5.8c-1-0.1-2-0.2-2.9-0.2C8.1,24.4,8.1,19.1,8.2,13.8z"/>
	<path id="XMLID_1_" class="st0" d="M11.1,16.5c1,0,2.2-0.2,2.8,0.7c0.6,1,0.5,2.2,0.1,3.2c-0.6,1-1.8,0.9-2.8,1
		C11.1,19.8,11.1,18.1,11.1,16.5z"/>
</g>
</svg>
