<?xml version="1.0" encoding="utf-8"?>
<!-- Generator: Adobe Illustrator 19.0.0, SVG Export Plug-In . SVG Version: 6.00 Build 0)  -->
<svg version="1.1" id="Layer_1" xmlns="http://www.w3.org/2000/svg" xmlns:xlink="http://www.w3.org/1999/xlink" x="0px" y="0px"
	 viewBox="0 0 44 44" style="enable-background:new 0 0 44 44;" xml:space="preserve">
<style type="text/css">
	.st0{fill:#A33639;}
	.st1{fill:#FFFFFF;}
</style>
<g id="access">
	<path id="XMLID_7_" class="st0" d="M23,0.7h3c0,1.4,0,2.9,0,4.3c4.8-0.6,9.8-0.6,14.4,1.1c1.7,0.6,3.6,1.9,3.4,4
		c0,7.6,0,15.2,0,22.8c0.2,2.1-1.8,3.4-3.5,4c-4.6,1.5-9.5,1.7-14.3,1c0,1.8,0,3.6,0,5.3h-3.1c-7.5-1.4-15.1-2.6-22.6-4
		c0-11.5,0-23.1,0-34.6C7.8,3.4,15.4,2.1,23,0.7z"/>
	<path id="XMLID_6_" class="st1" d="M26,6.5c4.4-0.6,9-0.6,13.3,0.7c1.2,0.4,2.8,1,3,2.4c-0.2,1.2-1.4,1.7-2.3,2.1
		c-4.5,1.5-9.3,1.7-14,1C26,10.6,26,8.6,26,6.5z"/>
	<path id="XMLID_5_" class="st1" d="M36.1,14.2c2.2-0.3,4.4-0.8,6.2-2.2c-0.1,2.1,0.2,4.3-0.1,6.4c-0.9,1.1-2.3,1.4-3.6,1.8
		c-4.1,1-8.4,1-12.6,0.5c0-2.1,0-4.3,0-6.4C29.3,14.7,32.7,14.7,36.1,14.2z"/>
	<path id="XMLID_4_" class="st1" d="M10.3,13.7c1.2-0.1,2.3-0.2,3.5-0.3c1.7,5.5,3.2,11.1,4.9,16.7c-1.1-0.1-2.3-0.2-3.4-0.3
		c-0.3-1.2-0.6-2.5-0.9-3.7c-1.5,0-3-0.1-4.6-0.1c-0.3,1.2-0.6,2.3-0.9,3.5c-1-0.1-1.9-0.1-2.9-0.2C7.4,24.1,8.9,18.9,10.3,13.7z"/>
	<path id="XMLID_3_" class="st0" d="M10.4,23.4c0.5-2.3,1.2-4.6,1.6-6.9c0.4,2.3,1.1,4.6,1.7,6.9C12.5,23.4,11.4,23.4,10.4,23.4z"/>
	<path id="XMLID_2_" class="st1" d="M36.1,22.2c2.2-0.3,4.4-0.8,6.2-2.2c-0.1,2.1,0.2,4.3-0.1,6.4c-0.9,1.1-2.3,1.4-3.5,1.8
		c-4.1,1-8.5,1-12.7,0.5c0-2.1,0-4.3,0-6.4C29.3,22.6,32.7,22.6,36.1,22.2z"/>
	<path id="XMLID_1_" class="st1" d="M36.1,30.1c2.2-0.3,4.4-0.8,6.2-2.2c-0.1,2.1,0.2,4.3-0.1,6.4c-1.4,1.5-3.6,1.8-5.5,2.2
		c-3.5,0.5-7.1,0.5-10.7,0c0-2.1,0-4.3,0-6.4C29.3,30.5,32.7,30.5,36.1,30.1z"/>
</g>
</svg>
