<?xml version="1.0" encoding="utf-8"?>
<!-- Generator: Adobe Illustrator 19.0.0, SVG Export Plug-In . SVG Version: 6.00 Build 0)  -->
<svg version="1.1" id="Layer_1" xmlns="http://www.w3.org/2000/svg" xmlns:xlink="http://www.w3.org/1999/xlink" x="0px" y="0px"
	 viewBox="0 0 893 871.5" enable-background="new 0 0 893 871.5" xml:space="preserve">
<g id="word">
	<path id="XMLID_3_" fill="#2A5699" d="M467.2,0h60.6c0,27.1,0,54,0,81.1c108.4,0.6,216.8-1.1,325.1,0.6
		c23.1-2.3,41.2,15.6,39.1,38.7c1.7,199.6-0.4,399.4,1,599c-1,20.5,2,43.2-9.8,61.3c-14.8,10.5-33.9,9.2-51.2,10
		c-101.4-0.5-202.8-0.3-304.2-0.3c0,27.1,0,54,0,81.1h-63.3c-154.2-28.2-308.9-54-463.4-81.1C0.9,554,1,317.6,1,81.3
		C156.4,54.1,311.9,27.7,467.2,0z"/>
	<path id="XMLID_2_" fill="#FFFFFF" d="M527.8,111.5c111.5,0,222.9,0,334.4,0c0,216.2,0,432.4,0,648.6c-111.5,0-222.9,0-334.4,0
		c0-27.1,0-54,0-81.1c87.9,0,175.6,0,263.5,0c0-13.5,0-27.1,0-40.5c-87.9,0-175.6,0-263.5,0c0-16.9,0-33.7,0-50.7
		c87.9,0,175.6,0,263.5,0c0-13.5,0-27.1,0-40.5c-87.9,0-175.6,0-263.5,0c0-16.9,0-33.7,0-50.7c87.9,0,175.6,0,263.5,0
		c0-13.5,0-27.1,0-40.5c-87.9,0-175.6,0-263.5,0c0-16.9,0-33.7,0-50.7c87.9,0,175.6,0,263.5,0c0-13.5,0-27.1,0-40.5
		c-87.9,0-175.6,0-263.5,0c0-16.9,0-33.7,0-50.7c87.9,0,175.6,0,263.5,0c0-13.5,0-27.1,0-40.5c-87.9,0-175.6,0-263.5,0
		c0-16.9,0-33.7,0-50.7c87.9,0,175.6,0,263.5,0c0-13.5,0-27.1,0-40.5c-87.9,0-175.6,0-263.5,0C527.8,158.8,527.8,135.1,527.8,111.5z
		"/>
	<path id="XMLID_1_" fill="#FFFFFF" d="M210.4,290.5c19.3-1.1,38.5-1.9,57.8-2.9c13.5,68.4,27.3,136.7,41.9,204.8
		c11.5-70.3,24.1-140.5,36.4-210.7c20.3-0.7,40.5-1.8,60.7-3c-22.9,98.2-43,197.2-68,294.8c-16.9,8.8-42.3-0.4-62.3,1
		c-13.5-67.1-29.2-133.8-41.2-201.2c-11.9,65.5-27.3,130.3-40.8,195.4c-19.5-1-39-2.2-58.6-3.5C119.3,476,99.5,387.4,83.8,298
		c17.3-0.8,34.8-1.5,52.1-2.1c10.4,64.6,22.3,128.8,31.4,193.5C181.6,423.1,196.2,356.8,210.4,290.5z"/>
</g>
</svg>
