<?xml version="1.0" encoding="utf-8"?>
<!-- Generator: Adobe Illustrator 19.0.0, SVG Export Plug-In . SVG Version: 6.00 Build 0)  -->
<svg version="1.1" id="Layer_1" xmlns="http://www.w3.org/2000/svg" xmlns:xlink="http://www.w3.org/1999/xlink" x="0px" y="0px"
	 viewBox="0 0 44 44" style="enable-background:new 0 0 44 44;" xml:space="preserve">
<style type="text/css">
	.st0{fill:#0071C5;}
	.st1{fill:#FFFFFF;}
</style>
<g id="outlook">
	<path id="XMLID_5_" class="st0" d="M23,0.9h2.9c0,3.3,0,6.5,0,9.8c5.1,0,10.2,0,15.2,0c1,0,2.4,0.2,2.4,1.5
		c0.2,6.2,0,12.4,0.1,18.6c0,1.1,0,2.8-1.5,2.8c-5.4,0.2-10.8,0-16.2,0.1c0,3.1,0,6.2,0,9.3h-3c-7.5-1.4-15-2.6-22.5-3.9
		c0-11.4,0-22.9,0-34.3C7.9,3.5,15.5,2.2,23,0.9z"/>
	<path id="XMLID_4_" class="st1" d="M25.9,12.2c5.4,0,10.9,0,16.3,0c-0.1,0.6-0.3,1.3-0.8,1.7c-3.2,3-6.5,6.1-9.7,9.1
		c-1.9-1.8-3.8-3.6-5.8-5.4C25.9,15.8,25.9,14,25.9,12.2z"/>
	<path id="XMLID_3_" class="st1" d="M10.9,14c2.8-1,6,0.4,7.2,3.1c1.6,3.7,1.4,8.7-1.8,11.5c-2.9,2.5-7.8,1.1-9.2-2.5
		C5.4,22,6.2,15.7,10.9,14z"/>
	<path id="XMLID_2_" class="st1" d="M33.2,23.4c2.9-2.8,5.9-5.6,8.9-8.4c0,5.8,0,11.5,0,17.3c-5.4,0-10.8,0-16.2,0
		c0-4.3,0-8.6,0-12.8c1.8,1.6,3.5,3.5,5.4,4.9C32.1,24.6,32.7,23.9,33.2,23.4z"/>
	<path id="XMLID_1_" class="st0" d="M11.4,16.9c1.3-0.6,2.9,0,3.6,1.3c1,1.9,1,4.3,0.3,6.4c-0.5,1.5-2.1,2.7-3.6,2.1
		c-1.9-0.6-2.5-2.9-2.5-4.7C9.1,20.1,9.6,17.8,11.4,16.9z"/>
</g>
</svg>
